<svg xmlns="http://www.w3.org/2000/svg" version="1.0" viewBox="140.63 87.3 94.3 198.83"><defs><clipPath id="a"><path d="M164 87.293h48V118h-48Zm0 0"></path></clipPath><clipPath id="b"><path d="M140.418 101H167v128h-26.582Zm0 0"></path></clipPath><clipPath id="c"><path d="M145.523 227.977h84.418v9.3h-84.418Zm0 0"></path></clipPath><clipPath id="d"><path d="M209.285 101.508h25.633V228.57h-25.633Zm0 0"></path></clipPath></defs><g clip-path="url(#a)"><path d="M165.207 90.559c3.184 9.722 12.168 16.41 22.27 16.41.277 0 .562-.008.843-.016 5.387-.195 10.383-2.2 14.453-5.797 3.63-3.203 6.227-7.511 7.403-12.23.293 1.363.465 2.754.515 4.156.227 6.258-1.933 12.227-6.09 16.805-4.152 4.578-9.8 7.222-15.902 7.445a29 29 0 0 1-.824.016c-5.934 0-11.566-2.328-15.855-6.559-4.305-4.238-6.801-9.941-7.024-16.05-.05-1.4.02-2.802.211-4.18Zm22.668 27.379c.281 0 .566-.004.848-.016 6.261-.227 12.058-2.938 16.32-7.637 4.258-4.695 6.477-10.812 6.242-17.226a24.85 24.85 0 0 0-.836-5.528.298.298 0 0 0-.578.02c-.98 5.086-3.64 9.761-7.492 13.164-3.965 3.504-8.832 5.457-14.082 5.648-.27.008-.547.012-.82.012-10.258 0-19.332-7.078-22.067-17.21a.301.301 0 0 0-.297-.22.296.296 0 0 0-.281.243 24.848 24.848 0 0 0-.43 5.574c.23 6.261 2.786 12.101 7.2 16.449 4.402 4.34 10.18 6.727 16.273 6.727"></path></g><path d="M192.02 169.18a.293.293 0 0 0 .261.433.295.295 0 0 0 .262-.156c.102-.191.27-.379.445-.578.336-.383.719-.813.739-1.395.023-.812-.387-1.464-.79-2.101-.328-.52-.64-1.016-.699-1.57a.292.292 0 0 0-.324-.262.295.295 0 0 0-.266.324c.075.691.438 1.266.79 1.824.367.582.714 1.137.695 1.766-.016.367-.293.687-.59 1.023-.191.215-.39.442-.523.692"></path><path d="M189.621 168.977a.3.3 0 0 0 .254-.145c.188-.312.508-.539.855-.602a.921.921 0 0 1 .75.168.298.298 0 0 0 .418-.05.293.293 0 0 0-.05-.414 1.526 1.526 0 0 0-1.227-.286c-.512.094-.98.422-1.254.88-.086.14-.039.32.102.406a.31.31 0 0 0 .152.043M195.766 152.566a.417.417 0 0 0 .343-.18c4.407-6.44 7.77-5.46 11.024-4.511 1.898.555 3.691 1.078 5.5.035a.415.415 0 0 0-.418-.715c-1.496.864-3.05.41-4.848-.113-1.62-.473-3.453-1.008-5.457-.531-2.262.539-4.383 2.293-6.488 5.367a.415.415 0 0 0 .344.648"></path><path d="M197.543 152.066c.488-.43 1.363-.285 2.473-.101.742.125 1.613.27 2.586.27 1.882 0 4.14-.544 6.562-2.844a.304.304 0 0 0 .012-.422.3.3 0 0 0-.422-.008c-3.453 3.285-6.453 2.785-8.64 2.422-1.266-.211-2.262-.375-2.966.242a.3.3 0 0 0-.027.418.3.3 0 0 0 .422.023M202.484 148.559a.44.44 0 0 1 .88 0 .44.44 0 0 1-.88 0Zm1.473 0a1.033 1.033 0 0 0-2.066 0 1.034 1.034 0 0 0 2.066 0M208.777 148.195c1.438 0 2.836-.652 3.5-1.5a.416.416 0 0 0-.652-.512c-.695.887-2.508 1.516-3.992.997a.415.415 0 0 0-.528.254.41.41 0 0 0 .254.527c.461.164.942.234 1.418.234"></path><path d="M204.52 150.367c-.72.59-1.907.938-3.079.164-.8-.527-1.164-1.687-1.164-2.535a.297.297 0 1 0-.593 0c0 1.035.441 2.375 1.43 3.027a3.18 3.18 0 0 0 1.757.54 3.17 3.17 0 0 0 2.024-.739c1.167-.953 1.55-2.469.98-3.867a.302.302 0 0 0-.39-.16.298.298 0 0 0-.16.387c.573 1.394-.075 2.586-.805 3.183"></path><path d="M195.605 149.36c1.532-1.837 3.325-3.173 5.192-3.86 2.469-.906 5.117-.742 7.871.496.148.066.324 0 .394-.148a.296.296 0 0 0-.148-.391c-6.863-3.078-11.57.887-13.766 3.523a.297.297 0 0 0 .04.418.286.286 0 0 0 .19.067.296.296 0 0 0 .227-.106M204.629 98.945a.301.301 0 0 0 .41-.086.296.296 0 0 0-.086-.41c-5.59-3.64-11.48-5.566-17.027-5.566a.297.297 0 0 0-.297.297c0 .16.133.293.297.293 5.43 0 11.207 1.894 16.703 5.472M189.117 126c0-.727-.59-1.316-1.32-1.316a1.315 1.315 0 1 0 0 2.633c.73 0 1.32-.587 1.32-1.317M189.64 130.957a1.848 1.848 0 0 0-1.855-1.848 1.85 1.85 0 0 0-1.855 1.848c0 1.02.832 1.848 1.855 1.848a1.85 1.85 0 0 0 1.856-1.848M204.73 185.375h-.011a.294.294 0 0 0-.293.285c-.274 7.746-.578 16.528 1.258 24.41.859 3.703 3.515 9.11 11.277 13.832 4.91 2.989 10.242 4.602 12.762 4.602a.297.297 0 1 0 0-.594c-2.438 0-7.633-1.578-12.453-4.512-7.586-4.617-10.172-9.867-11.008-13.46-1.817-7.81-1.512-16.547-1.246-24.258a.296.296 0 0 0-.286-.305M182.156 175.953c.383-.406.742-.789 1.094-.992 1.574-.922 2.79-.223 3.766.336.484.281.906.523 1.3.508h.008c.39.015.813-.227 1.301-.508.977-.559 2.191-1.258 3.766-.336.351.203.71.586 1.09.992.726.774 1.632 1.738 2.878 1.738.66 0 1.422-.27 2.301-.984a.296.296 0 0 0 .043-.414.297.297 0 0 0-.418-.043c-2.11 1.707-3.207.535-4.37-.7-.411-.437-.802-.85-1.224-1.1-1.875-1.098-3.37-.235-4.363.335-.39.227-.766.438-.98.426h-.055c-.219.016-.59-.2-.98-.426-.993-.57-2.493-1.433-4.364-.336-.426.25-.812.664-1.226 1.102-1.16 1.234-2.258 2.406-4.371.699a.298.298 0 0 0-.418.043.293.293 0 0 0 .046.414c2.54 2.055 4.063.434 5.176-.754M183.922 163.875a.292.292 0 0 0-.262-.324.294.294 0 0 0-.328.262c-.059.554-.367 1.05-.7 1.57-.398.637-.812 1.289-.784 2.101.02.582.402 1.012.738 1.395.176.2.34.387.445.578.051.102.153.156.262.156a.293.293 0 0 0 .258-.434c-.133-.25-.328-.476-.52-.69-.297-.337-.578-.657-.59-1.024-.02-.63.329-1.184.696-1.766.351-.558.715-1.133.785-1.824"></path><path d="M184.09 168.398a.907.907 0 0 1 .75-.168c.347.063.668.29.855.602.055.09.157.145.254.145a.299.299 0 0 0 .153-.043.294.294 0 0 0 .101-.407 1.881 1.881 0 0 0-1.254-.879 1.52 1.52 0 0 0-1.222.286.298.298 0 0 0-.055.414c.101.129.289.152.418.05M188.203 184.234H188.434c4.55 0 6.671-3.07 8.722-6.043.145-.207.29-.418.434-.625a.296.296 0 1 0-.485-.34l-.437.63c-2.055 2.976-3.996 5.789-8.234 5.789H188.203c-4.234 0-6.176-2.813-8.23-5.79-.145-.207-.293-.417-.438-.628a.299.299 0 0 0-.414-.075.299.299 0 0 0-.074.414c.144.207.293.418.433.625 2.055 2.973 4.176 6.043 8.723 6.043"></path><path d="M180.504 177.7c.351-.098.719-.196.894-.075 1.188.82 3.989 1.285 6.868 1.285 2.648 0 5.363-.394 6.949-1.27.195-.109.555-.015.902.075.496.129 1.059.273 1.442-.11a.296.296 0 0 0-.004-.417.292.292 0 0 0-.418 0c-.14.14-.512.046-.871-.047-.438-.114-.938-.243-1.34-.02-3.094 1.711-11.07 1.477-13.188.016-.406-.278-.93-.137-1.39-.008-.352.094-.711.191-.844.059a.297.297 0 0 0-.422 0 .292.292 0 0 0 0 .417c.375.38.934.227 1.422.094"></path><path d="M171.617 134.344c3.238-1.809 6.586-3.676 9.457-6.2 3.266-2.87 5.426-6.195 6.606-10.171a.298.298 0 0 0-.57-.168c-2.567 8.648-9.286 12.394-15.782 16.023-6.75 3.766-13.125 7.324-13.668 16.027a.304.304 0 0 0 .016.118c.984 7.453 4.676 26.808 8.035 30.812 3.101 3.707 14.094 14.16 22.043 15.055h.066c7.946-.895 18.938-11.348 22.043-15.05 3.356-4.009 7.047-23.364 8.032-30.817a.244.244 0 0 0 .015-.118c-.539-8.703-6.914-12.261-13.664-16.027-6.496-3.629-13.215-7.375-15.785-16.023a.295.295 0 0 0-.367-.2.295.295 0 0 0-.203.368c1.183 3.976 3.343 7.3 6.609 10.172 2.871 2.523 6.219 4.39 9.453 6.199 6.59 3.676 12.817 7.148 13.363 15.492 0 .008-.004.012-.004.016-.46 3.503-1.605 10.097-3.035 16.3-1.75 7.614-3.433 12.543-4.87 14.254-1.774 2.121-5.345 5.614-9.321 8.649-3.36 2.566-8.219 5.718-12.3 6.191-4.083-.473-8.938-3.625-12.302-6.191-3.976-3.035-7.547-6.528-9.32-8.649-3.238-3.867-6.969-23.422-7.906-30.554v-.016c.547-8.344 6.77-11.816 13.36-15.492"></path><g clip-path="url(#b)"><path d="M166.234 102.117a.292.292 0 0 0 .036-.414.301.301 0 0 0-.418-.039c-5.059 4.234-12.16 11.574-17.278 22.484-5.015 10.696-6.828 22.122-5.394 33.961 3.605 29.766 1.746 35.696-.403 42.559-.539 1.723-1.097 3.5-1.601 5.723-.446 1.949-.754 5.402-.293 9.234.582 4.813 2.168 9.102 4.719 12.754a.302.302 0 0 0 .414.074.296.296 0 0 0 .074-.414c-5.508-7.883-5.246-17.52-4.336-21.516.5-2.203 1.055-3.968 1.59-5.68 2.168-6.925 4.043-12.91.422-42.804-1.418-11.726.379-23.047 5.347-33.64 5.07-10.813 12.11-18.087 17.121-22.282"></path></g><path d="M170.543 99.145a.307.307 0 0 0 .164-.047c5.484-3.575 11.707-5.625 17.066-5.625a.296.296 0 0 0 .297-.293.297.297 0 0 0-.297-.297c-5.554 0-11.73 2.031-17.39 5.719a.294.294 0 0 0 .16.543M174.656 120.07a.238.238 0 0 0 .477 0v-.238a.24.24 0 0 0-.238-.238.242.242 0 0 0-.239.238v.238M174.656 117.582c0 .133.11.238.239.238a.237.237 0 0 0 .238-.238v-.234a.24.24 0 0 0-.238-.239.242.242 0 0 0-.239.239v.234M174.656 119.242a.238.238 0 0 0 .477 0v-.238a.24.24 0 0 0-.238-.238.242.242 0 0 0-.239.238v.238M174.656 115.926c0 .133.11.238.239.238a.237.237 0 0 0 .238-.238v-.235a.24.24 0 0 0-.238-.238.242.242 0 0 0-.239.238v.235M174.656 115.098c0 .132.11.238.239.238a.237.237 0 0 0 .238-.238v-.235a.24.24 0 0 0-.238-.238.242.242 0 0 0-.239.238v.235M174.656 116.754c0 .133.11.238.239.238a.237.237 0 0 0 .238-.238v-.234a.24.24 0 0 0-.238-.239.242.242 0 0 0-.239.239v.234M174.895 114.508a.237.237 0 0 0 .238-.238v-.235a.24.24 0 0 0-.238-.238.242.242 0 0 0-.239.238v.235c0 .132.11.238.239.238M174.656 118.41c0 .133.11.238.239.238a.237.237 0 0 0 .238-.238v-.234a.24.24 0 0 0-.238-.239.242.242 0 0 0-.239.239v.234M174.656 125.867a.238.238 0 0 0 .477 0v-.238a.24.24 0 0 0-.238-.238.242.242 0 0 0-.239.238v.238M174.656 125.04a.238.238 0 0 0 .477 0v-.24a.24.24 0 0 0-.238-.237.242.242 0 0 0-.239.238v.238M174.656 126.695a.238.238 0 0 0 .477 0v-.238a.238.238 0 0 0-.477 0v.238M174.656 120.898a.238.238 0 0 0 .477 0v-.238a.24.24 0 0 0-.238-.238.242.242 0 0 0-.239.238v.238M174.656 124.21a.238.238 0 0 0 .477 0v-.237a.24.24 0 0 0-.238-.239.242.242 0 0 0-.239.239v.238M174.656 123.383a.238.238 0 0 0 .477 0v-.238a.24.24 0 0 0-.238-.239.242.242 0 0 0-.239.239v.238M174.656 121.727a.238.238 0 0 0 .477 0v-.239a.24.24 0 0 0-.238-.238.242.242 0 0 0-.239.238v.239M174.656 122.555a.238.238 0 0 0 .477 0v-.239a.24.24 0 0 0-.238-.238.242.242 0 0 0-.239.238v.239"></path><path d="M176.652 126.977c0-.965-.785-1.75-1.757-1.75-.97 0-1.758.785-1.758 1.75 0 .968.789 1.753 1.758 1.753.972 0 1.757-.785 1.757-1.753M176.172 122.105c0-.703-.57-1.27-1.277-1.27-.704 0-1.278.567-1.278 1.27a1.277 1.277 0 0 0 2.555 0M189.094 126a1.32 1.32 0 0 0-2.64 0c0 .73.593 1.316 1.32 1.316.73 0 1.32-.586 1.32-1.316M175.738 118.148a.842.842 0 0 0-.843-.84.842.842 0 1 0 0 1.684.845.845 0 0 0 .843-.844M189.64 130.957a1.848 1.848 0 0 0-1.855-1.848 1.85 1.85 0 0 0-1.855 1.848c0 1.02.832 1.848 1.855 1.848a1.85 1.85 0 0 0 1.856-1.848M158.3 223.398c-4.82 2.934-10.01 4.512-12.452 4.512a.297.297 0 1 0 0 .594c2.523 0 7.851-1.613 12.761-4.602 7.762-4.722 10.418-10.129 11.282-13.832 1.832-7.882 1.527-16.664 1.257-24.41a.294.294 0 0 0-.296-.285h-.012a.299.299 0 0 0-.285.305c.27 7.71.574 16.449-1.243 24.257-.835 3.594-3.425 8.844-11.011 13.461M187.559 121.438c0 .132.109.238.238.238a.237.237 0 0 0 .238-.239v-.238a.238.238 0 0 0-.477 0v.239M187.559 123.094c0 .133.109.238.238.238a.237.237 0 0 0 .238-.238v-.239a.238.238 0 0 0-.477 0v.239M187.559 122.266c0 .132.109.238.238.238a.237.237 0 0 0 .238-.238v-.239a.238.238 0 0 0-.477 0v.239M187.559 120.61c0 .132.109.238.238.238a.237.237 0 0 0 .238-.239v-.238a.238.238 0 0 0-.477 0v.238M187.559 118.953c0 .129.109.238.238.238a.24.24 0 0 0 .238-.238v-.238a.238.238 0 0 0-.477 0v.238M187.559 123.922c0 .133.109.238.238.238a.237.237 0 0 0 .238-.238v-.238a.238.238 0 0 0-.477 0v.238M187.559 119.781c0 .133.109.239.238.239a.237.237 0 0 0 .238-.239v-.238a.238.238 0 0 0-.477 0v.238M187.797 118.36a.236.236 0 0 0 .238-.235v-.238a.238.238 0 0 0-.477 0v.238c0 .129.11.234.239.234"></path><path d="M187.559 130.547c0 .133.109.238.238.238a.237.237 0 0 0 .238-.238v-.234a.237.237 0 0 0-.238-.239.24.24 0 0 0-.238.238v.235M187.559 128.89c0 .133.109.239.238.239a.237.237 0 0 0 .238-.238v-.235a.237.237 0 0 0-.238-.238.24.24 0 0 0-.238.238v.235M187.559 124.75c0 .133.109.238.238.238a.237.237 0 0 0 .238-.238v-.238a.238.238 0 0 0-.477 0v.238M187.559 129.719c0 .133.109.238.238.238a.237.237 0 0 0 .238-.238v-.235a.237.237 0 0 0-.238-.238.24.24 0 0 0-.238.238v.235M187.559 128.063c0 .132.109.238.238.238a.237.237 0 0 0 .238-.238v-.235a.237.237 0 0 0-.238-.238.24.24 0 0 0-.238.238v.234M187.559 125.578c0 .133.109.238.238.238a.237.237 0 0 0 .238-.238v-.238a.238.238 0 0 0-.477 0v.238M187.559 127.234c0 .133.109.239.238.239a.237.237 0 0 0 .238-.239v-.238a.238.238 0 0 0-.477 0v.238M187.559 126.406c0 .133.109.239.238.239a.237.237 0 0 0 .238-.239v-.238a.238.238 0 0 0-.477 0v.238M187.535 123.922c0 .133.11.238.238.238a.237.237 0 0 0 .239-.238v-.238a.238.238 0 0 0-.477 0v.238M187.535 122.266c0 .132.11.238.238.238a.237.237 0 0 0 .239-.238v-.239a.238.238 0 0 0-.477 0v.239M187.535 121.438c0 .132.11.238.238.238a.237.237 0 0 0 .239-.239v-.238a.238.238 0 0 0-.477 0v.239M187.535 123.094c0 .133.11.238.238.238a.237.237 0 0 0 .239-.238v-.239a.238.238 0 0 0-.477 0v.239M187.535 118.953c0 .129.11.238.238.238a.24.24 0 0 0 .239-.238v-.238a.238.238 0 0 0-.477 0v.238M187.773 118.36a.236.236 0 0 0 .239-.235v-.238a.238.238 0 0 0-.477 0v.238c0 .129.11.234.238.234M187.535 120.61c0 .132.11.238.238.238a.237.237 0 0 0 .239-.239v-.238a.238.238 0 0 0-.477 0v.238M187.535 119.781c0 .133.11.239.238.239a.237.237 0 0 0 .239-.239v-.238a.238.238 0 0 0-.477 0v.238"></path><path d="M187.535 127.234c0 .133.11.239.238.239a.237.237 0 0 0 .239-.239v-.238a.238.238 0 0 0-.477 0v.238M187.535 128.89c0 .133.11.239.238.239a.237.237 0 0 0 .239-.238v-.235a.237.237 0 0 0-.239-.238.24.24 0 0 0-.238.238v.235M187.535 129.719c0 .133.11.238.238.238a.237.237 0 0 0 .239-.238v-.235a.237.237 0 0 0-.239-.238.24.24 0 0 0-.238.238v.235M187.535 130.547c0 .133.11.238.238.238a.237.237 0 0 0 .239-.238v-.234a.237.237 0 0 0-.239-.239.24.24 0 0 0-.238.238v.235M187.535 126.406c0 .133.11.239.238.239a.237.237 0 0 0 .239-.239v-.238a.238.238 0 0 0-.477 0v.238M187.535 128.063c0 .132.11.238.238.238a.237.237 0 0 0 .239-.238v-.235a.237.237 0 0 0-.239-.238.24.24 0 0 0-.238.238v.234M187.535 125.578c0 .133.11.238.238.238a.237.237 0 0 0 .239-.238v-.238a.238.238 0 0 0-.477 0v.238M187.535 124.75c0 .133.11.238.238.238a.237.237 0 0 0 .239-.238v-.238a.238.238 0 0 0-.477 0v.238M192.7 223.012c-2.305 0-4.868-3.012-4.868-5.715 0 2.703-2.562 5.715-4.863 5.715 2.3 0 4.863 3.008 4.863 5.71 0-2.702 2.563-5.71 4.867-5.71"></path><g clip-path="url(#c)"><path d="M145.574 228.25a.298.298 0 0 0 .258.332c1.445.18 3.145.324 5.117.492 8.832.754 22.18 1.899 36.578 8.176.04.016.078.027.121.027h.278a.32.32 0 0 0 .117-.027c14.406-6.281 27.691-7.422 36.48-8.176 1.957-.168 3.649-.316 5.09-.492a.298.298 0 0 0 .258-.332.299.299 0 0 0-.332-.258c-1.43.18-3.113.324-5.066.492-8.817.758-22.133 1.899-36.61 8.2h-.152c-14.469-6.297-27.852-7.442-36.711-8.2-1.965-.168-3.66-.312-5.094-.492a.299.299 0 0 0-.332.258"></path></g><path d="M169.086 139.25c.266-.012.539-.016.816-.016 4.715 0 10.211 1.45 11.246 3.875.118.274.118.395.118.43a.306.306 0 0 1-.106.012c-.183 0-.476-.067-.87-.2a45.594 45.594 0 0 1-1.618-.59c-2.676-1.015-6.727-2.542-10.692-2.542-1.43 0-2.742.199-3.921.601 1.125-.73 2.808-1.484 5.027-1.57Zm-6.785 3.063c1.558-.997 3.469-1.504 5.68-1.504 3.855 0 7.843 1.507 10.484 2.504.633.242 1.18.449 1.637.601.468.156.804.23 1.058.23.281 0 .48-.09.598-.269.199-.297.058-.71-.063-.996-.715-1.672-2.941-2.668-4.683-3.211-2.094-.652-4.684-1.027-7.11-1.027-.285 0-.566.007-.84.015-4.683.184-7.058 3.102-7.156 3.227a.29.29 0 0 0 .012.379c.098.11.262.129.383.05M194.426 143.11c1.035-2.426 6.527-3.876 11.242-3.876.277 0 .55.004.816.016 2.223.086 3.907.84 5.032 1.57-1.184-.402-2.496-.601-3.922-.601-3.969 0-8.016 1.527-10.696 2.543-.628.238-1.171.441-1.617.59-.394.132-.687.199-.87.199a.265.265 0 0 1-.102-.012c-.004-.035 0-.156.117-.43Zm-.016 1.035c.254 0 .594-.075 1.063-.23.457-.153 1.004-.36 1.636-.602 2.637-.997 6.625-2.504 10.485-2.504 2.207 0 4.117.507 5.68 1.504a.293.293 0 0 0 .378-.051.29.29 0 0 0 .012-.38c-.098-.124-2.469-3.042-7.156-3.226a29.293 29.293 0 0 0-.84-.015c-2.422 0-5.016.375-7.11 1.027-1.742.543-3.968 1.539-4.68 3.21-.124.286-.26.7-.065.997.117.18.32.27.597.27M195.215 153.664a.507.507 0 1 0-1.01-.002.507.507 0 0 0 1.01.002M198.73 153.738a.825.825 0 0 0-.828-.824.825.825 0 1 0 0 1.649.825.825 0 0 0 .828-.825M202.098 154.195a1.025 1.025 0 0 0-2.05 0 1.025 1.025 0 0 0 2.05 0M205.39 154.25c0-.617-.5-1.113-1.117-1.113a1.114 1.114 0 1 0 0 2.226c.618 0 1.118-.5 1.118-1.113M208.473 153.43c0-.614-.5-1.11-1.118-1.11-.613 0-1.113.496-1.113 1.11 0 .613.5 1.11 1.113 1.11.618 0 1.118-.497 1.118-1.11M211.027 151.656c0-.558-.457-1.011-1.02-1.011-.558 0-1.015.453-1.015 1.011a1.019 1.019 0 0 0 2.035 0M212.918 149.254a.808.808 0 1 0-1.615-.002.808.808 0 0 0 1.615.002M214.23 146.516a.475.475 0 1 0-.95-.003.475.475 0 0 0 .95.003M168.258 147.875c3.254-.95 6.617-1.93 11.027 4.512.078.117.211.18.344.18.078 0 .16-.024.234-.07a.414.414 0 0 0 .106-.579c-2.102-3.074-4.227-4.828-6.489-5.367-2-.477-3.835.058-5.453.531-1.8.523-3.351.977-4.851.113a.416.416 0 0 0-.567.153.411.411 0 0 0 .153.562c1.804 1.043 3.597.52 5.496-.035"></path><path d="M175.379 152.203c1.105-.183 1.98-.328 2.473.102a.3.3 0 0 0 .418-.028.293.293 0 0 0-.028-.418c-.699-.617-1.699-.449-2.965-.238-2.187.363-5.183.863-8.64-2.426a.3.3 0 0 0-.418.012.296.296 0 0 0 .008.418c2.421 2.3 4.68 2.848 6.562 2.848.973 0 1.844-.145 2.59-.27M172.031 148.559a.44.44 0 0 1 .88 0 .44.44 0 0 1-.88 0Zm1.469 0a1.03 1.03 0 0 0-1.031-1.028 1.03 1.03 0 1 0 0 2.059c.57 0 1.031-.461 1.031-1.031M166.613 148.195c.477 0 .961-.074 1.422-.234a.415.415 0 0 0 .254-.527.42.42 0 0 0-.531-.254c-1.485.52-3.293-.11-3.992-.996a.416.416 0 0 0-.653.511c.668.848 2.067 1.5 3.5 1.5"></path><path d="M169.906 146.797a.298.298 0 0 0-.386.16c-.575 1.398-.192 2.914.976 3.867a3.178 3.178 0 0 0 2.024.738c.605 0 1.214-.18 1.761-.539.989-.652 1.43-1.992 1.426-3.027a.297.297 0 1 0-.594 0c.004.848-.363 2.008-1.16 2.535-1.176.774-2.363.426-3.082-.164-.726-.597-1.375-1.789-.805-3.183a.294.294 0 0 0-.16-.387"></path><path d="M166.723 145.996c2.754-1.238 5.402-1.402 7.87-.496 1.868.688 3.665 2.023 5.192 3.86.059.07.145.105.23.105.067 0 .133-.02.188-.067a.294.294 0 0 0 .04-.418c-2.196-2.636-6.903-6.601-13.763-3.523-.148.066-.214.242-.148.39.066.15.242.215.39.15M181.188 153.664a.507.507 0 1 0-1.014-.002.507.507 0 0 0 1.013.002M178.32 153.738a.825.825 0 0 0-.828-.824.825.825 0 1 0 0 1.649.825.825 0 0 0 .828-.825M175.344 154.195a1.025 1.025 0 0 0-2.05 0 1.025 1.025 0 0 0 2.05 0M172.238 154.25c0-.617-.5-1.113-1.117-1.113a1.114 1.114 0 1 0 0 2.226c.617 0 1.117-.5 1.117-1.113M169.152 153.43c0-.614-.5-1.11-1.117-1.11a1.11 1.11 0 1 0 0 2.22c.617 0 1.117-.497 1.117-1.11M166.398 151.656c0-.558-.453-1.011-1.015-1.011a1.013 1.013 0 1 0 0 2.027c.562 0 1.015-.457 1.015-1.016M164.094 149.254a.809.809 0 0 0-.813-.809.808.808 0 1 0 0 1.614c.45 0 .813-.36.813-.805M162.113 146.516a.476.476 0 1 0-.953 0c0 .261.211.472.477.472.261 0 .476-.21.476-.472M168.21 100.629a.297.297 0 0 0-.296-.297.298.298 0 1 0 0 .594.297.297 0 0 0 .297-.297M170.352 103.191a.528.528 0 0 0-1.055 0 .527.527 0 0 0 1.055 0M172.79 105.457a.708.708 0 0 0-.712-.707.707.707 0 1 0 0 1.414c.395 0 .711-.316.711-.707M175.445 107.441a.854.854 0 0 0-.855-.851.852.852 0 1 0 0 1.703.852.852 0 0 0 .855-.852M178.27 109.137a.964.964 0 0 0-.965-.961.964.964 0 0 0-.97.96c0 .536.435.966.97.966.53 0 .965-.43.965-.965M181.234 110.523a1.045 1.045 0 0 0-2.09 0c0 .579.47 1.043 1.047 1.043.575 0 1.043-.464 1.043-1.043M184.32 111.547c0-.602-.488-1.094-1.093-1.094-.606 0-1.098.492-1.098 1.094 0 .601.492 1.094 1.098 1.094.605 0 1.093-.493 1.093-1.094M187.496 112.121c0-.617-.5-1.117-1.121-1.117-.617 0-1.121.5-1.121 1.117a1.12 1.12 0 0 0 1.121 1.117c.621 0 1.121-.5 1.121-1.117M190.7 112.121a1.12 1.12 0 0 0-1.122-1.117c-.621 0-1.125.5-1.125 1.117s.504 1.117 1.125 1.117c.617 0 1.121-.5 1.121-1.117M193.816 111.52c0-.602-.492-1.09-1.097-1.09a1.091 1.091 0 1 0 0 2.183c.605 0 1.097-.492 1.097-1.093M196.754 110.379c0-.574-.469-1.04-1.043-1.04a1.04 1.04 0 1 0 0 2.079c.574 0 1.043-.465 1.043-1.04M199.453 108.793a.963.963 0 0 0-1.926 0 .964.964 0 0 0 1.926 0M201.887 106.855a.846.846 0 0 0-.848-.843.846.846 0 1 0 0 1.691.847.847 0 0 0 .848-.848M204.05 104.648a.699.699 0 1 0-1.396-.001.699.699 0 0 0 1.397.001M205.938 102.215a.511.511 0 1 0-1.022-.002.511.511 0 0 0 1.022.002M207.516 99.578a.28.28 0 0 0-.559 0c0 .156.125.277.277.277a.277.277 0 0 0 .282-.277M168.094 217.012a.632.632 0 1 0-1.26-.002.632.632 0 0 0 1.26.002M171.406 218.21a.973.973 0 0 0-1.945 0 .97.97 0 0 0 .973.97.97.97 0 0 0 .972-.97M174.523 219.406c0-.617-.5-1.113-1.117-1.113a1.114 1.114 0 1 0 0 2.227c.617 0 1.117-.5 1.117-1.114M177.477 220.59a1.091 1.091 0 0 0-2.184 0 1.09 1.09 0 0 0 1.09 1.086 1.09 1.09 0 0 0 1.094-1.086M180.254 221.754a.883.883 0 0 0-.887-.883.882.882 0 1 0 0 1.766.883.883 0 0 0 .887-.883M182.828 222.89a.462.462 0 0 0-.922 0 .461.461 0 0 0 .922 0M208.648 217.012a.633.633 0 1 0-1.265 0c0 .347.285.629.633.629a.63.63 0 0 0 .632-.63M206.02 218.21a.975.975 0 0 0-1.95 0c0 .536.438.97.977.97a.972.972 0 0 0 .973-.97M203.191 219.406c0-.617-.5-1.113-1.12-1.113a1.114 1.114 0 1 0 0 2.227c.62 0 1.12-.5 1.12-1.114M200.184 220.59a1.09 1.09 0 0 0-2.18 0 1.09 1.09 0 0 0 2.18 0M196.992 221.754a.885.885 0 0 0-1.77 0 .885.885 0 0 0 1.77 0M193.574 222.89a.462.462 0 0 0-.922 0 .461.461 0 0 0 .922 0M148.621 215.668c.559-1.48 1.594-2.68 2.594-3.836.914-1.055 1.851-2.14 2.453-3.457.09.508.191 1.027.293 1.566.473 2.418.96 4.918.262 7.145-.594 1.879-1.957 3.226-3.399 4.652-.8.793-1.625 1.606-2.3 2.524.093-1.285-.044-2.45-.176-3.586-.196-1.684-.383-3.278.273-5.008Zm-.676 10.172c.035.012.067.02.102.02.105 0 .21-.06.262-.16.707-1.34 1.84-2.458 2.933-3.54 1.43-1.414 2.91-2.879 3.547-4.898.742-2.371.242-4.946-.242-7.434-.18-.91-.348-1.77-.45-2.601a.472.472 0 0 0-.019-.07.29.29 0 0 0-.172-.231.295.295 0 0 0-.37.11c-.048.073-.122.187-.106.316-.504 1.597-1.555 2.812-2.664 4.093-1.036 1.2-2.106 2.434-2.703 4.012-.704 1.867-.508 3.531-.305 5.29.172 1.476.351 3-.004 4.757a.297.297 0 0 0 .191.336"></path><g clip-path="url(#d)"><path d="M227.059 124.152c-5.094-10.933-12.176-18.265-17.22-22.488a.3.3 0 0 0-.417.04.292.292 0 0 0 .035.413c5 4.188 12.016 11.445 17.063 22.281 4.93 10.582 6.707 21.903 5.285 33.641-3.621 29.895-1.746 35.879.425 42.805.536 1.71 1.09 3.476 1.59 5.68.907 3.996 1.168 13.632-4.34 21.515a.3.3 0 0 0 .075.414.305.305 0 0 0 .414-.074c2.55-3.652 4.14-7.941 4.719-12.754.46-3.832.152-7.285-.29-9.234-.507-2.223-1.062-4-1.601-5.723-2.152-6.863-4.008-12.793-.402-42.559 1.433-11.847-.36-23.273-5.336-33.957"></path></g><path d="M200.441 117.582a.236.236 0 1 0 .473 0v-.234a.24.24 0 0 0-.238-.239.238.238 0 0 0-.235.239v.234M200.441 118.41a.236.236 0 1 0 .473 0v-.234a.24.24 0 0 0-.238-.239.238.238 0 0 0-.235.239v.234M200.441 119.242c0 .13.106.235.235.235a.236.236 0 0 0 .238-.235v-.238a.24.24 0 0 0-.238-.238.238.238 0 0 0-.235.238v.238M200.676 114.508a.237.237 0 0 0 .238-.238v-.235a.24.24 0 0 0-.238-.238.238.238 0 0 0-.235.238v.235c0 .132.106.238.235.238M200.441 115.098a.236.236 0 1 0 .473 0v-.235a.24.24 0 0 0-.238-.238.238.238 0 0 0-.235.238v.235M200.441 116.754a.236.236 0 1 0 .473 0v-.234a.24.24 0 0 0-.238-.239.238.238 0 0 0-.235.239v.234M200.441 115.926a.236.236 0 1 0 .473 0v-.235a.24.24 0 0 0-.238-.238.238.238 0 0 0-.235.238v.235M200.441 120.07c0 .13.106.235.235.235a.236.236 0 0 0 .238-.235v-.238a.24.24 0 0 0-.238-.238.238.238 0 0 0-.235.238v.238M200.441 125.867c0 .13.106.235.235.235a.236.236 0 0 0 .238-.235v-.238a.24.24 0 0 0-.238-.238.238.238 0 0 0-.235.238v.238M200.441 125.04c0 .128.106.233.235.233a.236.236 0 0 0 .238-.234v-.238a.24.24 0 0 0-.238-.239.238.238 0 0 0-.235.239v.238M200.441 124.21c0 .13.106.235.235.235a.236.236 0 0 0 .238-.234v-.238a.24.24 0 0 0-.238-.239.238.238 0 0 0-.235.239v.238M200.441 120.898c0 .13.106.235.235.235a.236.236 0 0 0 .238-.235v-.238a.24.24 0 0 0-.238-.238.238.238 0 0 0-.235.238v.238M200.441 126.695c0 .13.106.235.235.235a.236.236 0 0 0 .238-.235v-.238a.236.236 0 0 0-.473 0v.238M200.441 121.727c0 .128.106.234.235.234a.236.236 0 0 0 .238-.234v-.239a.24.24 0 0 0-.238-.238.238.238 0 0 0-.235.238v.239M200.441 122.555c0 .129.106.234.235.234a.236.236 0 0 0 .238-.234v-.239a.24.24 0 0 0-.238-.238.238.238 0 0 0-.235.238v.239M200.441 123.383c0 .129.106.234.235.234a.236.236 0 0 0 .238-.234v-.238a.24.24 0 0 0-.238-.239.238.238 0 0 0-.235.239v.238"></path><path d="M202.434 126.977c0-.965-.786-1.75-1.758-1.75a1.753 1.753 0 1 0 0 3.503c.972 0 1.758-.785 1.758-1.753M201.953 122.105c0-.703-.57-1.27-1.277-1.27a1.27 1.27 0 1 0 0 2.544c.707 0 1.277-.57 1.277-1.274M201.523 118.148a.843.843 0 0 0-.847-.84.842.842 0 1 0 0 1.684.846.846 0 0 0 .847-.844M224.36 211.832c1 1.156 2.035 2.356 2.593 3.836.652 1.73.469 3.324.27 5.008-.133 1.137-.266 2.3-.172 3.586-.68-.918-1.5-1.73-2.301-2.524-1.445-1.425-2.809-2.773-3.398-4.652-.7-2.227-.215-4.727.257-7.145.106-.539.207-1.058.293-1.566.606 1.316 1.543 2.402 2.457 3.457Zm-2.32-4.797a.298.298 0 0 0-.372-.11.303.303 0 0 0-.176.231c-.008.024-.012.047-.015.07-.106.833-.274 1.692-.45 2.602-.484 2.488-.988 5.063-.242 7.434.637 2.02 2.113 3.484 3.547 4.898 1.09 1.082 2.223 2.2 2.93 3.54a.3.3 0 0 0 .265.16.29.29 0 0 0 .098-.02.29.29 0 0 0 .191-.336c-.355-1.758-.175-3.281-.004-4.758.208-1.758.399-3.422-.304-5.289-.594-1.578-1.664-2.812-2.7-4.012-1.109-1.28-2.16-2.496-2.663-4.093.011-.13-.06-.243-.106-.317M167.64 122.156c3.618-2.86 6.743-5.328 7.56-8.496a.296.296 0 0 0-.216-.36.294.294 0 0 0-.359.212c-.766 2.976-3.82 5.386-7.355 8.18-7.934 6.273-18.801 14.859-15.446 37.64.719 4.898 4.188 30.219 1.637 47.883a.29.29 0 0 0 .25.332.295.295 0 0 0 .336-.25c2.562-17.742-.914-43.14-1.637-48.05-1.465-9.954-.347-18.013 3.422-24.63 3.23-5.683 7.79-9.285 11.809-12.46"></path><path d="M152.367 199.953c-.543.758-1.117 1.52-1.672 2.258-1.48 1.953-3 3.969-4.023 6.156-1.559-7.484 1.129-10.562 3.973-13.812 1.367-1.559 2.77-3.164 3.675-5.297.078 2.613-.027 7.988-1.953 10.695Zm2.203-12.508a.297.297 0 0 0-.312.215c-.778 2.758-2.446 4.664-4.059 6.508-2.922 3.34-5.941 6.789-3.906 15.227.031.125.14.214.27.226h.019c.121 0 .23-.074.277-.187.97-2.45 2.668-4.696 4.309-6.868.559-.742 1.137-1.504 1.684-2.27 1.144-1.608 1.824-4.222 2.027-7.76.148-2.614-.04-4.798-.04-4.821a.307.307 0 0 0-.269-.27"></path><path d="M159.105 199.68c.72.832 1.461 1.687 2.137 2.547 2.059 2.609 2.426 7.98 2.477 10.59-.985-2.012-2.387-3.34-3.75-4.63-1.434-1.355-2.918-2.757-3.89-4.964-1.009-2.286-1.368-5.239-1.099-9.004 1.075 1.949 2.622 3.73 4.125 5.46Zm-4.378-6.825a.29.29 0 0 0-.247.262c-.96 9.781 2.11 12.688 5.079 15.5 1.68 1.59 3.265 3.09 4.171 5.793a.297.297 0 0 0 .282.203c.015 0 .027 0 .043-.004.14-.02.25-.136.254-.28 0-.02.082-2.212-.196-4.813-.37-3.528-1.18-6.102-2.402-7.657-.684-.867-1.434-1.73-2.156-2.566-1.715-1.973-3.489-4.016-4.512-6.27a.291.291 0 0 0-.316-.168M170.121 124.23c.031.836.066 1.7.024 2.54-.098 2.027-1.11 3.765-2.09 5.445-.02.035-.04.07-.063.105-.07-.722-.203-1.418-.332-2.097-.234-1.243-.457-2.418-.328-3.723.176-1.738.574-3.96 2.129-5.734l.832-.707c-.277 1.367-.223 2.789-.172 4.171Zm.871-5.253a.299.299 0 0 0-.36.02l-1.57 1.331a.119.119 0 0 0-.03.031c-1.68 1.903-2.106 4.25-2.29 6.082-.14 1.391.102 2.66.336 3.891.184.965.375 1.961.375 3.012 0 .133.09.25.223.285.023.008.047.008.074.008a.292.292 0 0 0 .258-.149c.18-.324.363-.64.562-.976 1.012-1.742 2.063-3.543 2.168-5.711.043-.867.008-1.742-.023-2.59-.067-1.727-.13-3.36.39-4.895a.295.295 0 0 0-.113-.34M165.785 115.332c2.86 0 5.125.797 6.34 1.223.055.02.105.039.156.054-.726.352-1.832.88-2.445 1.172-2.3 1.098-4.043 1.547-6.02 1.547-.21 0-.425-.004-.644-.016-1.317-.066-2.586-.304-3.809-.53-.87-.165-1.765-.333-2.683-.438 2.832-2 5.89-3.012 9.105-3.012Zm-10.187 3.316c.035.118.14.204.261.211 1.157.086 2.293.297 3.395.504 1.242.23 2.531.473 3.89.54.227.011.454.015.672.015.004 0 0 0 0 0 2.07 0 3.891-.465 6.278-1.606.972-.46 3.168-1.515 3.168-1.515a.296.296 0 0 0-.176-.559c-.102-.008-.438-.125-.762-.238-1.25-.441-3.578-1.258-6.539-1.258-3.582 0-6.976 1.207-10.086 3.59a.29.29 0 0 0-.101.316M159.41 140.363c-.082-.61-.21-1.258-.34-1.93-.254-1.304-.515-2.652-.515-3.953.004-2.406 1.02-4.71 3.015-6.851.07.39.14.754.207 1.113.786 4.238 1.043 5.64-2.367 11.621Zm2.649-13.504a.302.302 0 0 0-.492-.082.25.25 0 0 0-.051.059c-2.356 2.36-3.551 4.934-3.555 7.644 0 1.356.266 2.735.527 4.067.196 1.004.38 1.957.418 2.781a.296.296 0 0 0 .297.281.302.302 0 0 0 .258-.144c4.004-6.86 3.726-8.363 2.898-12.828-.093-.5-.187-1.012-.285-1.582a.293.293 0 0 0-.015-.196"></path><path d="M156.707 124.531c1.207-.238 2.527-.12 3.8-.008.9.079 1.817.16 2.716.122-.2.171-.414.37-.66.59-2.575 2.335-7.305 6.624-13.668 6.343a16.84 16.84 0 0 0 1.683-2.543c1.29-2.398 3.41-3.957 6.129-4.504Zm-6.652 4.227c-.543 1.004-1.153 1.894-1.98 2.89a.297.297 0 0 0 .202.485c.403.035.793.05 1.18.05 6.324 0 11.129-4.355 13.508-6.511.597-.543 1.074-.973 1.363-1.152.082-.016.164-.032.242-.051a.294.294 0 1 0-.132-.574c-1.211.277-2.504.16-3.875.039-1.317-.118-2.68-.239-3.973.02-2.899.581-5.16 2.241-6.535 4.804M154.828 160.926c2.5 2.633 5.324 5.605 4.969 14.367-1.04-1.77-1.965-3.012-2.793-4.129-2.191-2.945-3.691-4.965-4.762-13.465.692 1.235 1.621 2.211 2.586 3.227Zm-3.18-5.66a.297.297 0 0 0-.246.324c1.102 10.512 2.703 12.668 5.121 15.926.954 1.277 2.028 2.726 3.254 4.941a.298.298 0 0 0 .325.148.307.307 0 0 0 .234-.27c.64-9.8-2.399-12.995-5.078-15.815-1.387-1.465-2.7-2.848-3.27-5.036a.296.296 0 0 0-.34-.218"></path><path d="M150.883 162.781c-.477 2.375-1.735 4.43-2.742 6.078-.407.664-.766 1.25-1.02 1.77-1.234-6.95 1.219-10.527 3.035-13.172.422-.621.817-1.195 1.121-1.754.043 1.848.086 4.711-.394 7.078Zm.984-8.988a.295.295 0 0 0-.27-.3.3.3 0 0 0-.32.25 2.47 2.47 0 0 0-.023.296c-.121.945-.77 1.887-1.59 3.082-1.965 2.871-4.66 6.8-2.906 14.715.031.137.152.23.293.23h.015a.297.297 0 0 0 .278-.265c.058-.602.636-1.543 1.304-2.633 1.032-1.691 2.317-3.793 2.817-6.27.52-2.566.445-5.664.398-7.515-.011-.563-.023-1.004-.015-1.297.011-.098.015-.195.02-.293M152.832 175.543c-.023 1.656-.043 3.223-.125 3.937-.215 1.864-.594 3.985-1.77 5.583-.421.574-.906 1.125-1.37 1.66-.626.714-1.262 1.445-1.786 2.257-.215-3.496-.125-7.664 1.672-10.875.953-1.71 2.547-4.777 3.477-6.59-.059 1.114-.078 2.587-.098 4.028Zm.316-5.75c-.03.055-2.812 5.516-4.214 8.023-2.047 3.657-1.97 8.438-1.676 12.192.012.137.11.246.242.27.02.003.04.003.055.003a.297.297 0 0 0 .27-.168c.53-1.105 1.335-2.027 2.19-3.004.473-.543.965-1.101 1.403-1.695 1.262-1.723 1.668-4.039 1.879-5.867.086-.742.105-2.324.129-3.996.031-2.278.066-4.863.27-5.54a.299.299 0 0 0-.173-.359.297.297 0 0 0-.375.141"></path><path d="M159.102 182.492c2.332 1.996 3.597 4.535 3.87 7.758.137 1.602.321 3.227.497 4.797a274.5 274.5 0 0 1 .351 3.242c-4.328-3.668-6.754-10.187-8.039-15.105a65.817 65.817 0 0 1-1.469-7.454c1.575 4.012 3.676 5.813 4.79 6.762Zm-5.465-9.992a.295.295 0 0 0-.25.313c.004.046.351 4.882 1.82 10.511 1.36 5.215 3.988 12.2 8.793 15.875.055.04.117.059.184.059a.296.296 0 0 0 .296-.293c0-.024 0-.047-.007-.067-.121-1.296-.27-2.628-.414-3.914-.176-1.57-.356-3.191-.493-4.78-.289-3.392-1.62-6.06-4.078-8.161-1.3-1.113-4.011-3.434-5.515-9.324a.299.299 0 0 0-.336-.219M150.594 144.824l-.024.106c-.707 3.605-2.504 5.527-4.78 7.957-.102.11-.208.218-.31.328.297-1.492.313-3.05.329-4.356.03-2.437.105-4.035 1.246-6.054 1.62-2.868 4.601-4.856 6.347-5.84-1.714 2.277-2.25 5-2.808 7.86Zm3.945-9.105c-.223.097-5.523 2.422-8 6.793-1.191 2.105-1.293 3.8-1.324 6.34-.016 1.609-.04 3.609-.594 5.332a.296.296 0 0 0 .281.386.29.29 0 0 0 .22-.093c.374-.415.745-.805 1.1-1.184 2.34-2.504 4.192-4.477 4.934-8.25l.02-.106c.644-3.277 1.25-6.375 3.687-8.734a.297.297 0 0 0 .043-.379.3.3 0 0 0-.367-.105"></path><path d="M156.328 156.656c-1.531-1.765-2.648-4.219-3.258-7.164-1.027-4.972.422-9.824 1.172-11.496 2.465 6.05 2.223 8.254 1.918 11.024-.207 1.87-.437 3.976.168 7.636Zm-1.781-19.469a.297.297 0 0 0-.516-.055c-.562.794-2.761 6.583-1.543 12.481.719 3.477 2.137 6.305 4.098 8.172a.303.303 0 0 0 .348.047.293.293 0 0 0 .148-.316c-.797-4.184-.55-6.442-.332-8.434.309-2.824.578-5.262-2.203-11.894M208.309 121.79c-3.54-2.782-6.594-5.18-7.36-8.157a.296.296 0 1 0-.574.145c.816 3.171 3.945 5.628 7.566 8.476 4.02 3.156 8.575 6.738 11.805 12.402 3.762 6.594 4.879 14.64 3.414 24.59-.722 4.91-4.2 30.309-1.633 48.05.02.15.145.255.293.255.012 0 .028 0 .043-.004a.292.292 0 0 0 .25-.332c-2.554-17.664.914-42.985 1.637-47.883 3.352-22.773-7.512-31.312-15.441-37.543"></path><path d="M221.25 189.262c.906 2.129 2.313 3.734 3.676 5.293 2.844 3.25 5.535 6.328 3.976 13.812-1.023-2.187-2.547-4.203-4.023-6.156a96.31 96.31 0 0 1-1.672-2.258c-1.926-2.707-2.031-8.082-1.957-10.691Zm3.152 13.304c1.645 2.172 3.34 4.418 4.313 6.868a.292.292 0 0 0 .273.187h.024a.3.3 0 0 0 .265-.226c2.04-8.438-.98-11.887-3.902-15.227-1.613-1.844-3.285-3.75-4.059-6.508a.3.3 0 0 0-.312-.215.3.3 0 0 0-.27.27 37.485 37.485 0 0 0-.039 4.82c.2 3.54.883 6.153 2.028 7.762.543.766 1.12 1.527 1.68 2.27"></path><path d="M214.328 202.227c.676-.86 1.418-1.715 2.14-2.547 1.5-1.73 3.048-3.512 4.122-5.461.273 3.765-.09 6.719-1.098 9.004-.972 2.207-2.453 3.609-3.887 4.964-1.363 1.29-2.765 2.618-3.75 4.63.051-2.61.418-7.981 2.473-10.59Zm-2.812 12.382a.293.293 0 0 0 .324-.2c.906-2.702 2.492-4.202 4.172-5.792 2.972-2.812 6.043-5.719 5.082-15.5a.29.29 0 0 0-.246-.262.296.296 0 0 0-.32.168c-1.024 2.254-2.794 4.297-4.508 6.27-.727.836-1.473 1.7-2.16 2.566-1.223 1.555-2.028 4.13-2.403 7.657-.273 2.601-.195 4.793-.195 4.812a.297.297 0 0 0 .254.281M206.11 120.766c1.554 1.773 1.952 3.996 2.128 5.734.133 1.305-.09 2.48-.328 3.723-.129.68-.262 1.375-.332 2.097-.02-.035-.039-.07-.062-.105-.977-1.68-1.993-3.418-2.09-5.445-.04-.84-.008-1.704.023-2.54.055-1.382.11-2.804-.172-4.171Zm-1.278 6.035c.106 2.168 1.156 3.969 2.172 5.71.195.337.379.653.559.977a.303.303 0 0 0 .261.149c.024 0 .047 0 .074-.008a.3.3 0 0 0 .223-.285c0-1.047.191-2.047.371-3.012.235-1.23.477-2.5.336-3.89-.183-1.833-.61-4.18-2.285-6.083-.012-.011-.02-.023-.031-.03l-1.57-1.333a.3.3 0 0 0-.36-.02.295.295 0 0 0-.113.34c.515 1.536.453 3.168.39 4.895-.035.848-.066 1.723-.027 2.59M203.445 116.559c1.22-.43 3.485-1.227 6.34-1.227 3.215 0 6.274 1.012 9.106 3.012-.918.105-1.809.273-2.68.437-1.227.227-2.492.465-3.813.531-.214.012-.433.016-.644.016-1.973 0-3.719-.45-6.02-1.547-.613-.293-1.714-.82-2.441-1.172.047-.015.098-.035.152-.05Zm2.035 1.754c2.387 1.14 4.204 1.605 6.274 1.605.223 0 .45-.004.676-.016 1.36-.066 2.644-.308 3.89-.539 1.098-.207 2.235-.418 3.39-.504a.302.302 0 0 0 .267-.21.292.292 0 0 0-.106-.317c-3.11-2.383-6.5-3.59-10.086-3.59-2.957 0-5.285.817-6.535 1.258-.328.113-.664.23-.762.238a.303.303 0 0 0-.328.196c-.05.14.016.296.153.363 0 0 2.195 1.055 3.167 1.516M213.797 128.742c.066-.36.133-.722.203-1.113 2 2.14 3.012 4.445 3.016 6.851.004 1.301-.258 2.649-.512 3.954-.133.671-.258 1.32-.344 1.93-3.406-5.981-3.148-7.384-2.363-11.622Zm2.316 12.723c.051.09.153.144.254.144.024 0 .047 0 .07-.007a.291.291 0 0 0 .227-.274c.04-.824.227-1.777.422-2.781.258-1.332.527-2.711.523-4.067-.004-2.71-1.199-5.285-3.55-7.644a.25.25 0 0 0-.051-.059.32.32 0 0 0-.223-.093.302.302 0 0 0-.273.175.283.283 0 0 0-.012.192c-.098.57-.195 1.086-.29 1.582-.823 4.469-1.105 5.972 2.903 12.832"></path><path d="M215.063 124.523c1.277-.113 2.593-.23 3.8.008 2.723.547 4.84 2.106 6.133 4.504.477.89 1.004 1.692 1.68 2.543-6.36.281-11.09-4.008-13.668-6.344-.242-.218-.461-.418-.656-.59.894.04 1.812-.042 2.71-.12Zm-3.82-.003c.292.18.769.609 1.366 1.152 2.38 2.156 7.18 6.512 13.504 6.512.39 0 .782-.016 1.18-.051a.297.297 0 0 0 .25-.18.298.298 0 0 0-.047-.305c-.828-.996-1.437-1.886-1.976-2.89-1.38-2.563-3.637-4.223-6.54-4.805-1.289-.258-2.652-.137-3.968-.02-1.371.122-2.668.239-3.875-.038a.293.293 0 0 0-.356.222.291.291 0 0 0 .223.352c.078.02.16.035.238.05M220.746 160.926c.961-1.016 1.89-1.992 2.582-3.227-1.07 8.5-2.57 10.52-4.758 13.465-.828 1.117-1.754 2.36-2.793 4.129-.359-8.762 2.465-11.734 4.97-14.367Zm-5.277 15.68c.023.003.043.007.066.007a.292.292 0 0 0 .258-.156c1.227-2.215 2.305-3.664 3.254-4.941 2.422-3.258 4.02-5.414 5.121-15.926a.296.296 0 0 0-.582-.105c-.57 2.187-1.883 3.57-3.273 5.035-2.68 2.82-5.715 6.015-5.075 15.816a.299.299 0 0 0 .23.27"></path><path d="M224.293 155.703c.305.559.7 1.133 1.125 1.754 1.812 2.645 4.266 6.223 3.031 13.172-.25-.52-.61-1.106-1.015-1.77-1.012-1.648-2.266-3.703-2.746-6.078-.477-2.367-.438-5.23-.395-7.078Zm-.188 7.195c.5 2.477 1.786 4.579 2.82 6.27.669 1.09 1.243 2.031 1.302 2.633a.297.297 0 0 0 .277.265h.02a.296.296 0 0 0 .288-.23c1.758-7.914-.937-11.844-2.906-14.715-.816-1.195-1.465-2.137-1.59-3.082a2.47 2.47 0 0 0-.023-.297.293.293 0 0 0-.316-.25.301.301 0 0 0-.274.301 3.7 3.7 0 0 0 .024.293c.007.293-.004.734-.02 1.297-.043 1.851-.121 4.949.398 7.515M226.121 178.105c1.797 3.211 1.887 7.38 1.668 10.875-.52-.812-1.16-1.542-1.785-2.257-.465-.536-.945-1.086-1.367-1.66-1.184-1.61-1.57-3.829-1.774-5.583-.082-.714-.101-2.28-.125-3.937-.015-1.441-.035-2.914-.097-4.027.933 1.812 2.523 4.879 3.48 6.59Zm-3.844 1.442c.211 1.828.614 4.144 1.88 5.867.437.594.925 1.152 1.402 1.695.851.977 1.656 1.899 2.191 3.004.05.106.152.168.266.168.02 0 .039 0 .054-.004a.295.295 0 0 0 .243-.27c.292-3.753.37-8.534-1.672-12.19-1.403-2.508-4.188-7.97-4.215-8.024a.297.297 0 0 0-.55.219c.206.675.241 3.261.272 5.539.02 1.672.04 3.254.13 3.996"></path><path d="M212.102 195.047c.18-1.57.359-3.2.496-4.797.273-3.223 1.543-5.762 3.87-7.758 1.114-.949 3.22-2.75 4.794-6.762a66.568 66.568 0 0 1-1.469 7.442c-1.285 4.926-3.711 11.445-8.04 15.117.106-1.078.231-2.176.349-3.242Zm-.711 4.21a.3.3 0 0 0 .18-.058c4.804-3.676 7.437-10.66 8.796-15.875 1.469-5.629 1.817-10.465 1.817-10.512a.295.295 0 0 0-.246-.312.299.299 0 0 0-.336.219c-1.508 5.89-4.215 8.21-5.52 9.324-2.453 2.102-3.789 4.77-4.074 8.16-.137 1.59-.32 3.211-.496 4.777-.145 1.301-.293 2.645-.418 3.958a.297.297 0 0 0 .152.285.316.316 0 0 0 .145.035M228.516 142.805c1.144 2.02 1.218 3.617 1.246 6.054.015 1.305.035 2.864.328 4.356l-.305-.328c-2.277-2.43-4.078-4.352-4.785-7.957l-.02-.106c-.562-2.86-1.093-5.582-2.808-7.86 1.742.985 4.723 2.974 6.344 5.84Zm-4.098 2.238c.738 3.773 2.59 5.746 4.934 8.25.355.379.722.77 1.097 1.184a.296.296 0 0 0 .219.093h.004a.296.296 0 0 0 .27-.418c-.544-1.718-.567-3.703-.587-5.3-.027-2.54-.132-4.235-1.324-6.34-2.472-4.371-7.773-6.696-8-6.793a.295.295 0 0 0-.363.105.301.301 0 0 0 .039.38c2.438 2.358 3.047 5.456 3.688 8.733l.023.106"></path><path d="M221.332 137.996c.746 1.672 2.2 6.524 1.172 11.496-.61 2.946-1.73 5.399-3.258 7.164.602-3.66.371-5.765.164-7.636-.3-2.77-.543-4.973 1.922-11.024Zm-2.691 19.836a.3.3 0 0 0 .14.035.287.287 0 0 0 .203-.082c1.965-1.867 3.383-4.695 4.102-8.172 1.219-5.898-.984-11.687-1.547-12.48a.294.294 0 0 0-.273-.125.3.3 0 0 0-.243.18c-2.777 6.632-2.511 9.07-2.203 11.894.22 1.992.47 4.25-.332 8.434a.302.302 0 0 0 .153.316M172.866 285.968l-2.774-3.492c.875-.118 2.196-.543 2.196-2.063 0-1.629-1.77-1.855-2.371-1.855h-2.243v7.41h.836v-3.446h.543l2.739 3.446Zm-4.356-7.219h.957c1.204 0 1.922.496 1.922 1.793 0 1.32-.847 1.793-2.226 1.793h-.653ZM177.734 285.968h.84v-7.41h-.84ZM189.888 278.558l-2.797 6.289-2.691-6.29h-.906l3.23 7.563h.07l3.364-7.562ZM200.515 285.968h.906l-3.242-7.551h-.063l-3.36 7.55h.259l1.332-2.972h2.879Zm-4.082-3.172 1.378-3.106 1.333 3.106ZM206.313 285.968h.84v-7.41h-.84ZM150.647 254.85c1.953-.512 4.164-1.7 4.164-4.504 0-3.598-4.422-3.797-5.695-3.797h-5.383v17.789h4.871c.766 0 6.828-.113 6.828-4.93 0-3.086-2.351-4.246-4.785-4.558Zm-2.61-7.848c2.723 0 4.618.879 4.618 3.656 0 2.774-2.04 4.106-5.352 4.106h-1.558v-7.762Zm-.734 16.883h-1.558v-8.668h2.293c4.308 0 5.242 2.238 5.242 4.504 0 3.344-2.719 4.164-5.977 4.164ZM158.209 264.338h2.008v-17.79h-2.008ZM176.819 264.338h2.18l-7.79-18.129h-.14l-8.074 18.129h.62l3.204-7.137h6.91Zm-9.8-7.617 3.312-7.453 3.199 7.453ZM195.825 246.549h-.457v15.07l-13.933-15.41h-.059v18.129h.453V249.44l13.91 15.41h.086ZM213.385 262.725s-1.898 1.644-5.183 1.644c-3.172 0-7.68-1.418-7.68-8.867 0-7.34 4.93-8.84 7.68-8.84 3.34 0 5.183 1.332 5.183 1.332v-.625s-1.957-1.16-5.183-1.16c-5.102 0-9.746 2.719-9.746 9.293 0 7.563 5.922 9.348 9.488 9.348 3.543 0 5.441-1.504 5.441-1.504ZM229.417 264.338h2.18l-7.79-18.129h-.14l-8.074 18.129h.621l3.203-7.137h6.91Zm-9.8-7.617 3.312-7.453 3.199 7.453Zm0 0"></path></svg>